<svg id="svg" xmlns="http://www.w3.org/2000/svg" xmlns:xlink="http://www.w3.org/1999/xlink" width="400" height="400" viewBox="0, 0, 400,400"><g id="svgg"><path id="path0" d="M83.749 0.360 C 81.149 0.484,78.776 0.782,78.476 1.021 C 78.175 1.261,76.627 1.560,75.034 1.687 C 73.406 1.817,72.008 2.128,71.842 2.397 C 71.680 2.660,70.441 2.955,69.091 3.053 C 67.740 3.151,66.396 3.470,66.102 3.764 C 65.809 4.057,64.900 4.297,64.082 4.297 C 63.237 4.297,62.386 4.550,62.109 4.883 C 61.842 5.205,61.051 5.469,60.352 5.469 C 59.652 5.469,58.861 5.732,58.594 6.055 C 58.326 6.377,57.711 6.641,57.227 6.641 C 56.742 6.641,56.144 6.883,55.898 7.179 C 55.652 7.476,54.918 7.825,54.265 7.956 C 53.613 8.086,52.814 8.459,52.488 8.784 C 52.163 9.109,51.558 9.375,51.144 9.375 C 50.730 9.375,50.391 9.547,50.391 9.758 C 50.391 9.969,49.909 10.262,49.320 10.410 C 48.732 10.558,48.016 10.913,47.730 11.199 C 47.444 11.485,46.871 11.719,46.456 11.719 C 46.042 11.719,45.703 11.982,45.703 12.305 C 45.703 12.669,45.335 12.891,44.730 12.891 C 44.180 12.891,43.545 13.230,43.269 13.672 C 43.000 14.102,42.402 14.453,41.940 14.453 C 41.478 14.453,40.998 14.717,40.874 15.039 C 40.751 15.361,40.380 15.625,40.051 15.625 C 39.722 15.625,39.453 15.889,39.453 16.211 C 39.453 16.533,39.182 16.797,38.851 16.797 C 38.103 16.797,36.081 18.206,34.787 19.629 C 34.250 20.220,33.586 20.703,33.311 20.703 C 33.037 20.703,32.813 20.867,32.813 21.067 C 32.813 21.268,32.489 21.534,32.095 21.660 C 31.417 21.874,23.047 29.839,23.047 30.268 C 23.047 30.378,22.739 30.791,22.363 31.186 C 21.987 31.580,21.416 32.304,21.094 32.794 C 20.771 33.284,19.937 34.283,19.238 35.014 C 18.540 35.745,17.969 36.608,17.969 36.933 C 17.969 37.259,17.705 37.626,17.383 37.749 C 17.061 37.873,16.797 38.307,16.797 38.714 C 16.797 39.120,16.533 39.453,16.211 39.453 C 15.889 39.453,15.625 39.690,15.625 39.979 C 15.625 40.269,15.273 40.911,14.844 41.406 C 14.414 41.902,14.062 42.525,14.062 42.791 C 14.062 43.058,13.799 43.377,13.477 43.501 C 13.154 43.624,12.891 44.170,12.891 44.714 C 12.891 45.333,12.671 45.703,12.305 45.703 C 11.938 45.703,11.719 46.073,11.719 46.692 C 11.719 47.236,11.455 47.782,11.133 47.906 C 10.811 48.029,10.547 48.557,10.547 49.077 C 10.547 49.598,10.283 50.126,9.961 50.249 C 9.639 50.373,9.374 50.763,9.372 51.116 C 9.371 51.469,9.021 52.285,8.594 52.930 C 8.167 53.574,7.816 54.478,7.815 54.939 C 7.814 55.399,7.549 55.877,7.227 56.001 C 6.882 56.133,6.641 56.719,6.641 57.422 C 6.641 58.125,6.399 58.711,6.055 58.843 C 5.672 58.990,5.469 59.599,5.469 60.601 C 5.469 61.603,5.266 62.212,4.883 62.359 C 4.487 62.511,4.297 63.132,4.297 64.272 C 4.297 65.200,4.058 66.199,3.766 66.490 C 3.474 66.782,3.151 68.042,3.047 69.289 C 2.944 70.536,2.644 71.689,2.381 71.852 C 2.102 72.024,1.809 73.442,1.681 75.234 C 1.536 77.258,1.243 78.570,0.828 79.045 C -0.146 80.160,-0.146 319.840,0.828 320.955 C 1.243 321.430,1.536 322.742,1.681 324.766 C 1.809 326.558,2.102 327.976,2.381 328.148 C 2.644 328.311,2.944 329.464,3.047 330.711 C 3.151 331.958,3.474 333.218,3.766 333.510 C 4.058 333.801,4.297 334.800,4.297 335.728 C 4.297 336.868,4.487 337.489,4.883 337.641 C 5.266 337.788,5.469 338.397,5.469 339.399 C 5.469 340.401,5.672 341.010,6.055 341.157 C 6.399 341.289,6.641 341.875,6.641 342.578 C 6.641 343.281,6.882 343.867,7.227 343.999 C 7.549 344.123,7.814 344.601,7.815 345.061 C 7.816 345.522,8.167 346.426,8.594 347.070 C 9.021 347.715,9.371 348.531,9.372 348.884 C 9.374 349.237,9.639 349.627,9.961 349.751 C 10.283 349.874,10.547 350.402,10.547 350.923 C 10.547 351.443,10.811 351.971,11.133 352.094 C 11.455 352.218,11.719 352.764,11.719 353.308 C 11.719 353.927,11.938 354.297,12.305 354.297 C 12.671 354.297,12.891 354.667,12.891 355.286 C 12.891 355.830,13.154 356.376,13.477 356.499 C 13.799 356.623,14.063 356.942,14.062 357.209 C 14.062 357.475,14.414 358.098,14.844 358.594 C 15.273 359.089,15.625 359.731,15.625 360.021 C 15.625 360.310,15.889 360.547,16.211 360.547 C 16.533 360.547,16.797 360.880,16.797 361.286 C 16.797 361.693,17.061 362.127,17.383 362.251 C 17.705 362.374,17.969 362.741,17.969 363.067 C 17.969 363.392,18.540 364.255,19.238 364.986 C 19.937 365.717,20.771 366.716,21.094 367.206 C 21.416 367.696,21.987 368.420,22.363 368.814 C 22.739 369.209,23.047 369.622,23.047 369.732 C 23.047 370.161,31.417 378.126,32.095 378.340 C 32.489 378.466,32.813 378.732,32.813 378.933 C 32.813 379.133,33.037 379.297,33.311 379.297 C 33.586 379.297,34.250 379.780,34.787 380.371 C 36.081 381.794,38.103 383.203,38.851 383.203 C 39.182 383.203,39.453 383.467,39.453 383.789 C 39.453 384.111,39.722 384.375,40.051 384.375 C 40.380 384.375,40.751 384.639,40.874 384.961 C 40.998 385.283,41.478 385.547,41.940 385.547 C 42.402 385.547,43.000 385.898,43.269 386.328 C 43.545 386.770,44.180 387.109,44.730 387.109 C 45.335 387.109,45.703 387.331,45.703 387.695 C 45.703 388.018,46.042 388.281,46.456 388.281 C 46.871 388.281,47.444 388.515,47.730 388.801 C 48.016 389.087,48.732 389.442,49.320 389.590 C 49.909 389.738,50.391 390.031,50.391 390.242 C 50.391 390.453,50.730 390.625,51.144 390.625 C 51.558 390.625,52.163 390.891,52.488 391.216 C 52.814 391.541,53.613 391.914,54.265 392.044 C 54.918 392.175,55.652 392.524,55.898 392.821 C 56.144 393.117,56.742 393.359,57.227 393.359 C 57.711 393.359,58.326 393.623,58.594 393.945 C 58.861 394.268,59.652 394.531,60.352 394.531 C 61.051 394.531,61.842 394.795,62.109 395.117 C 62.386 395.450,63.237 395.703,64.082 395.703 C 64.900 395.703,65.809 395.943,66.102 396.236 C 66.396 396.530,67.740 396.849,69.091 396.947 C 70.441 397.045,71.680 397.340,71.842 397.603 C 72.008 397.871,73.414 398.187,75.034 398.320 C 76.636 398.452,78.358 398.837,78.889 399.182 C 80.362 400.138,319.638 400.138,321.111 399.182 C 321.642 398.837,323.364 398.452,324.966 398.320 C 326.586 398.187,327.992 397.871,328.158 397.603 C 328.320 397.340,329.559 397.045,330.909 396.947 C 332.260 396.849,333.604 396.530,333.898 396.236 C 334.191 395.943,335.100 395.703,335.918 395.703 C 336.763 395.703,337.614 395.450,337.891 395.117 C 338.158 394.795,338.949 394.531,339.648 394.531 C 340.348 394.531,341.139 394.268,341.406 393.945 C 341.674 393.623,342.289 393.359,342.773 393.359 C 343.258 393.359,343.856 393.117,344.102 392.821 C 344.348 392.524,345.082 392.175,345.735 392.044 C 346.387 391.914,347.186 391.541,347.512 391.216 C 347.837 390.891,348.442 390.625,348.856 390.625 C 349.270 390.625,349.609 390.453,349.609 390.242 C 349.609 390.031,350.091 389.738,350.680 389.590 C 351.268 389.442,351.984 389.087,352.270 388.801 C 352.556 388.515,353.129 388.281,353.544 388.281 C 353.958 388.281,354.297 388.018,354.297 387.695 C 354.297 387.331,354.665 387.109,355.270 387.109 C 355.820 387.109,356.455 386.770,356.731 386.328 C 357.000 385.898,357.507 385.547,357.859 385.547 C 358.210 385.547,358.717 385.283,358.984 384.961 C 359.252 384.639,359.713 384.375,360.009 384.375 C 360.305 384.375,360.547 384.111,360.547 383.789 C 360.547 383.467,360.818 383.203,361.149 383.203 C 361.897 383.203,363.919 381.794,365.213 380.371 C 365.750 379.780,366.414 379.297,366.689 379.297 C 366.963 379.297,367.188 379.133,367.187 378.933 C 367.187 378.732,367.511 378.466,367.905 378.340 C 368.583 378.126,376.953 370.161,376.953 369.732 C 376.953 369.622,377.261 369.209,377.637 368.814 C 378.013 368.420,378.584 367.696,378.906 367.206 C 379.229 366.716,380.063 365.717,380.762 364.986 C 381.460 364.255,382.031 363.392,382.031 363.067 C 382.031 362.741,382.295 362.374,382.617 362.251 C 382.939 362.127,383.203 361.693,383.203 361.286 C 383.203 360.880,383.467 360.547,383.789 360.547 C 384.111 360.547,384.375 360.310,384.375 360.021 C 384.375 359.731,384.727 359.089,385.156 358.594 C 385.586 358.098,385.938 357.475,385.938 357.209 C 385.937 356.942,386.201 356.623,386.523 356.499 C 386.846 356.376,387.109 355.830,387.109 355.286 C 387.109 354.667,387.329 354.297,387.695 354.297 C 388.062 354.297,388.281 353.927,388.281 353.308 C 388.281 352.764,388.545 352.218,388.867 352.094 C 389.189 351.971,389.453 351.443,389.453 350.923 C 389.453 350.402,389.717 349.874,390.039 349.751 C 390.361 349.627,390.626 349.237,390.628 348.884 C 390.629 348.531,390.979 347.715,391.406 347.070 C 391.833 346.426,392.184 345.522,392.185 345.061 C 392.186 344.601,392.451 344.123,392.773 343.999 C 393.118 343.867,393.359 343.281,393.359 342.578 C 393.359 341.875,393.601 341.289,393.945 341.157 C 394.328 341.010,394.531 340.401,394.531 339.399 C 394.531 338.397,394.734 337.788,395.117 337.641 C 395.513 337.489,395.703 336.868,395.703 335.728 C 395.703 334.800,395.942 333.801,396.234 333.510 C 396.526 333.218,396.849 331.958,396.953 330.711 C 397.056 329.464,397.356 328.311,397.619 328.148 C 397.898 327.976,398.191 326.558,398.319 324.766 C 398.464 322.742,398.757 321.430,399.172 320.955 C 399.752 320.291,399.805 310.256,399.805 200.000 C 399.805 89.744,399.752 79.709,399.172 79.045 C 398.757 78.570,398.464 77.258,398.319 75.234 C 398.191 73.442,397.898 72.024,397.619 71.852 C 397.356 71.689,397.056 70.536,396.953 69.289 C 396.849 68.042,396.526 66.782,396.234 66.490 C 395.942 66.199,395.703 65.200,395.703 64.272 C 395.703 63.132,395.513 62.511,395.117 62.359 C 394.734 62.212,394.531 61.603,394.531 60.601 C 394.531 59.599,394.328 58.990,393.945 58.843 C 393.601 58.711,393.359 58.125,393.359 57.422 C 393.359 56.719,393.118 56.133,392.773 56.001 C 392.451 55.877,392.186 55.399,392.185 54.939 C 392.184 54.478,391.833 53.574,391.406 52.930 C 390.979 52.285,390.629 51.469,390.628 51.116 C 390.626 50.763,390.361 50.373,390.039 50.249 C 389.717 50.126,389.453 49.598,389.453 49.077 C 389.453 48.557,389.189 48.029,388.867 47.906 C 388.545 47.782,388.281 47.236,388.281 46.692 C 388.281 46.073,388.062 45.703,387.695 45.703 C 387.329 45.703,387.109 45.333,387.109 44.714 C 387.109 44.170,386.846 43.624,386.523 43.501 C 386.201 43.377,385.938 43.058,385.938 42.791 C 385.938 42.525,385.586 41.902,385.156 41.406 C 384.727 40.911,384.375 40.269,384.375 39.979 C 384.375 39.690,384.111 39.453,383.789 39.453 C 383.467 39.453,383.203 39.120,383.203 38.714 C 383.203 38.307,382.939 37.873,382.617 37.749 C 382.295 37.626,382.031 37.259,382.031 36.933 C 382.031 36.608,381.460 35.745,380.762 35.014 C 380.063 34.283,379.229 33.284,378.906 32.794 C 378.584 32.304,378.013 31.580,377.637 31.186 C 377.261 30.791,376.953 30.378,376.953 30.268 C 376.953 29.839,368.583 21.874,367.905 21.660 C 367.511 21.534,367.187 21.268,367.188 21.067 C 367.188 20.867,366.963 20.703,366.689 20.703 C 366.414 20.703,365.750 20.220,365.213 19.629 C 363.919 18.206,361.897 16.797,361.149 16.797 C 360.818 16.797,360.547 16.533,360.547 16.211 C 360.547 15.889,360.278 15.625,359.949 15.625 C 359.620 15.625,359.249 15.361,359.126 15.039 C 359.002 14.717,358.522 14.453,358.060 14.453 C 357.598 14.453,357.000 14.102,356.731 13.672 C 356.455 13.230,355.820 12.891,355.270 12.891 C 354.665 12.891,354.297 12.669,354.297 12.305 C 354.297 11.982,353.958 11.719,353.544 11.719 C 353.129 11.719,352.556 11.485,352.270 11.199 C 351.984 10.913,351.268 10.558,350.680 10.410 C 350.091 10.262,349.609 9.969,349.609 9.758 C 349.609 9.547,349.270 9.375,348.856 9.375 C 348.442 9.375,347.837 9.109,347.512 8.784 C 347.186 8.459,346.387 8.086,345.735 7.956 C 345.082 7.825,344.348 7.476,344.102 7.179 C 343.856 6.883,343.258 6.641,342.773 6.641 C 342.289 6.641,341.674 6.377,341.406 6.055 C 341.139 5.732,340.348 5.469,339.648 5.469 C 338.949 5.469,338.158 5.205,337.891 4.883 C 337.614 4.550,336.763 4.297,335.918 4.297 C 335.100 4.297,334.191 4.057,333.898 3.764 C 333.604 3.470,332.260 3.151,330.909 3.053 C 329.559 2.955,328.320 2.660,328.158 2.397 C 327.992 2.129,326.586 1.813,324.966 1.680 C 323.364 1.548,321.642 1.163,321.111 0.818 C 320.135 0.184,96.452 -0.247,83.749 0.360 M279.297 50.291 C 280.693 50.543,283.330 50.931,285.156 51.154 C 289.245 51.651,293.581 52.495,295.045 53.078 C 295.650 53.319,296.553 53.516,297.051 53.516 C 297.550 53.516,298.461 53.778,299.076 54.099 C 299.692 54.420,300.557 54.684,301.000 54.685 C 301.442 54.686,302.145 54.946,302.562 55.261 C 302.979 55.576,303.552 55.840,303.836 55.847 C 304.450 55.862,312.273 59.620,313.672 60.572 C 314.209 60.938,316.181 62.227,318.054 63.436 C 324.563 67.640,332.360 75.437,336.564 81.946 C 337.773 83.819,339.062 85.791,339.428 86.328 C 340.380 87.727,344.138 95.550,344.153 96.164 C 344.160 96.448,344.424 97.021,344.739 97.438 C 345.054 97.855,345.314 98.558,345.315 99.000 C 345.316 99.443,345.580 100.308,345.901 100.924 C 346.222 101.539,346.484 102.450,346.484 102.949 C 346.484 103.447,346.681 104.350,346.922 104.955 C 347.505 106.419,348.349 110.755,348.846 114.844 C 349.069 116.670,349.458 119.307,349.712 120.703 C 350.058 122.607,350.202 151.339,350.288 235.608 L 350.404 347.974 349.189 349.189 L 347.974 350.404 235.608 350.288 C 151.339 350.202,122.607 350.058,120.703 349.712 C 119.307 349.458,116.670 349.069,114.844 348.846 C 110.755 348.349,106.419 347.505,104.955 346.922 C 104.350 346.681,103.447 346.484,102.949 346.484 C 102.450 346.484,101.539 346.222,100.924 345.901 C 100.308 345.580,99.443 345.316,99.000 345.315 C 98.558 345.314,97.855 345.054,97.438 344.739 C 97.021 344.424,96.448 344.160,96.164 344.153 C 95.550 344.138,87.727 340.380,86.328 339.428 C 85.791 339.062,83.819 337.773,81.946 336.564 C 75.437 332.360,67.640 324.563,63.436 318.054 C 62.227 316.181,60.938 314.209,60.572 313.672 C 59.620 312.273,55.862 304.450,55.847 303.836 C 55.840 303.552,55.576 302.979,55.261 302.562 C 54.946 302.145,54.686 301.442,54.685 301.000 C 54.684 300.557,54.420 299.692,54.099 299.076 C 53.778 298.461,53.516 297.550,53.516 297.051 C 53.516 296.553,53.319 295.650,53.078 295.045 C 52.285 293.052,51.563 288.831,50.319 278.906 C 49.565 272.895,49.565 127.105,50.319 121.094 C 51.563 111.169,52.285 106.948,53.078 104.955 C 53.319 104.350,53.516 103.447,53.516 102.949 C 53.516 102.450,53.778 101.539,54.099 100.924 C 54.420 100.308,54.684 99.443,54.685 99.000 C 54.686 98.558,54.946 97.855,55.261 97.438 C 55.576 97.021,55.840 96.448,55.847 96.164 C 55.862 95.550,59.620 87.727,60.572 86.328 C 60.938 85.791,62.227 83.819,63.436 81.946 C 67.640 75.437,75.437 67.640,81.946 63.436 C 83.819 62.227,85.791 60.938,86.328 60.572 C 87.727 59.620,95.550 55.862,96.164 55.847 C 96.448 55.840,97.021 55.576,97.438 55.261 C 97.855 54.946,98.558 54.686,99.000 54.685 C 99.443 54.684,100.308 54.420,100.924 54.099 C 101.539 53.778,102.467 53.516,102.987 53.516 C 103.506 53.516,104.562 53.252,105.334 52.930 C 106.105 52.607,107.117 52.344,107.583 52.344 C 108.049 52.344,109.389 52.094,110.562 51.789 C 111.736 51.483,114.805 51.017,117.383 50.752 C 119.961 50.487,123.125 50.146,124.414 49.995 C 128.665 49.494,276.449 49.778,279.297 50.291 " stroke="none" fill="#fc8c04" fill-rule="evenodd"></path><path id="path1" d="M133.008 50.393 C 125.232 50.770,116.150 51.534,114.453 51.953 C 113.701 52.139,112.031 52.416,110.742 52.568 C 109.453 52.719,107.717 53.083,106.884 53.375 C 106.052 53.667,104.959 53.906,104.456 53.906 C 103.954 53.906,102.965 54.146,102.259 54.439 C 101.554 54.731,100.010 55.278,98.828 55.654 C 94.730 56.956,89.180 59.636,85.323 62.178 C 83.835 63.158,81.892 64.411,81.005 64.962 C 76.666 67.660,67.660 76.666,64.962 81.005 C 64.411 81.892,63.158 83.835,62.178 85.323 C 59.636 89.180,56.956 94.730,55.654 98.828 C 55.278 100.010,54.731 101.554,54.439 102.259 C 54.146 102.965,53.906 103.964,53.906 104.480 C 53.906 104.996,53.714 105.913,53.480 106.518 C 52.646 108.666,51.647 115.929,50.722 126.563 C 49.953 135.398,49.953 264.602,50.722 273.438 C 51.647 284.071,52.646 291.334,53.480 293.482 C 53.714 294.087,53.906 295.004,53.906 295.520 C 53.906 296.036,54.146 297.035,54.439 297.741 C 54.731 298.446,55.278 299.990,55.654 301.172 C 56.956 305.270,59.636 310.820,62.178 314.677 C 63.158 316.165,64.411 318.108,64.962 318.995 C 67.660 323.334,76.666 332.340,81.005 335.038 C 81.892 335.589,83.835 336.842,85.323 337.822 C 89.180 340.364,94.730 343.044,98.828 344.346 C 100.010 344.722,101.554 345.269,102.259 345.561 C 102.965 345.854,103.964 346.094,104.480 346.094 C 104.996 346.094,105.913 346.286,106.518 346.520 C 107.736 346.993,113.065 347.908,117.578 348.419 C 129.718 349.795,130.602 349.805,240.128 349.805 L 347.638 349.805 348.722 348.722 L 349.805 347.638 349.805 240.128 C 349.805 130.602,349.795 129.718,348.419 117.578 C 347.908 113.065,346.993 107.736,346.520 106.518 C 346.286 105.913,346.094 104.996,346.094 104.480 C 346.094 103.964,345.854 102.965,345.561 102.259 C 345.269 101.554,344.722 100.010,344.346 98.828 C 343.044 94.730,340.364 89.180,337.822 85.323 C 336.842 83.835,335.589 81.892,335.038 81.005 C 332.340 76.666,323.334 67.660,318.995 64.962 C 318.108 64.411,316.165 63.158,314.677 62.178 C 310.820 59.636,305.270 56.956,301.172 55.654 C 299.990 55.278,298.446 54.731,297.741 54.439 C 297.035 54.146,296.036 53.906,295.520 53.906 C 295.004 53.906,294.087 53.714,293.482 53.478 C 292.109 52.944,286.932 52.088,281.934 51.568 C 279.839 51.350,276.323 50.968,274.121 50.718 C 269.537 50.198,143.035 49.907,133.008 50.393 M278.672 95.929 C 280.412 96.268,282.390 96.796,283.067 97.101 C 283.744 97.406,284.483 97.656,284.710 97.656 C 284.936 97.656,286.016 98.184,287.109 98.828 C 288.203 99.473,289.197 100.000,289.320 100.000 C 289.668 100.000,294.602 103.944,295.649 105.059 C 300.130 109.828,303.060 115.740,304.107 122.124 C 304.915 127.058,304.937 199.845,304.131 205.469 C 302.746 215.138,297.434 224.206,289.340 230.719 C 287.791 231.966,286.348 233.128,286.133 233.302 C 283.060 235.793,274.909 240.171,270.313 241.800 C 268.916 242.295,267.618 242.837,267.427 243.005 C 267.084 243.307,268.810 247.050,271.915 252.734 C 272.795 254.346,274.137 256.807,274.897 258.203 C 277.170 262.378,279.011 265.725,279.949 267.383 C 280.435 268.242,281.095 269.473,281.416 270.117 C 281.736 270.762,282.802 272.695,283.783 274.414 C 284.765 276.133,285.833 278.066,286.157 278.711 C 286.480 279.355,287.146 280.586,287.635 281.445 C 288.125 282.305,289.204 284.238,290.032 285.742 C 290.860 287.246,291.936 289.180,292.421 290.039 C 292.907 290.898,293.644 292.217,294.058 292.969 C 296.353 297.136,298.927 301.731,299.302 302.332 C 300.563 304.351,301.254 304.297,274.266 304.297 L 249.288 304.297 248.325 303.152 C 247.795 302.522,246.977 301.248,246.507 300.320 C 246.037 299.392,245.314 298.105,244.901 297.461 C 244.487 296.816,244.026 296.025,243.876 295.703 C 243.726 295.381,242.263 292.832,240.625 290.039 C 238.987 287.246,237.527 284.697,237.381 284.375 C 237.234 284.053,236.942 283.525,236.731 283.203 C 235.944 282.002,227.344 267.210,227.344 267.059 C 227.344 266.972,225.706 264.109,223.705 260.697 C 221.704 257.284,219.944 254.229,219.795 253.906 C 219.645 253.584,219.176 252.793,218.751 252.148 C 218.327 251.504,217.803 250.572,217.586 250.077 C 216.098 246.685,214.793 245.414,212.537 245.159 C 208.547 244.710,206.705 243.039,205.897 239.141 C 205.325 236.377,205.303 199.087,205.873 198.021 C 206.266 197.287,206.938 197.266,229.297 197.266 C 251.656 197.266,252.328 197.244,252.721 196.510 C 253.337 195.358,253.275 147.963,252.656 147.344 C 252.071 146.759,147.839 146.653,147.478 147.237 C 147.099 147.852,147.262 244.502,147.649 248.047 C 148.113 252.306,148.974 257.522,149.582 259.766 C 149.844 260.732,150.332 262.578,150.666 263.867 C 151.522 267.172,152.805 271.115,153.398 272.266 C 153.675 272.803,153.903 273.448,153.904 273.699 C 153.905 273.950,154.158 274.653,154.467 275.261 C 154.775 275.870,155.859 278.125,156.876 280.273 C 160.137 287.162,165.702 296.024,169.728 300.740 C 172.818 304.361,174.608 304.086,147.065 304.213 C 118.174 304.346,121.182 304.719,116.881 300.472 C 105.193 288.930,98.226 273.320,95.893 253.452 C 94.994 245.789,95.027 125.957,95.930 121.328 C 96.627 117.756,97.430 115.369,98.702 113.086 C 99.181 112.227,99.851 110.981,100.191 110.318 C 101.666 107.443,107.443 101.666,110.318 100.191 C 110.981 99.851,112.256 99.164,113.152 98.664 C 115.399 97.409,116.878 96.894,120.508 96.099 C 125.086 95.097,273.584 94.938,278.672 95.929 " stroke="none" fill="#fafbfa" fill-rule="evenodd"></path><path id="path2" d="M120.508 96.099 C 116.878 96.894,115.399 97.409,113.152 98.664 C 112.256 99.164,110.981 99.851,110.318 100.191 C 107.443 101.666,101.666 107.443,100.191 110.318 C 99.851 110.981,99.181 112.227,98.702 113.086 C 97.430 115.369,96.627 117.756,95.930 121.328 C 95.027 125.957,94.994 245.789,95.893 253.452 C 98.226 273.320,105.193 288.930,116.881 300.472 C 121.182 304.719,118.174 304.346,147.065 304.213 C 174.608 304.086,172.818 304.361,169.728 300.740 C 165.702 296.024,160.137 287.162,156.876 280.273 C 155.859 278.125,154.775 275.870,154.467 275.261 C 154.158 274.653,153.905 273.950,153.904 273.699 C 153.903 273.448,153.675 272.803,153.398 272.266 C 152.805 271.115,151.522 267.172,150.666 263.867 C 150.332 262.578,149.844 260.732,149.582 259.766 C 148.974 257.522,148.113 252.306,147.649 248.047 C 147.262 244.502,147.099 147.852,147.478 147.237 C 147.839 146.653,252.071 146.759,252.656 147.344 C 253.275 147.963,253.337 195.358,252.721 196.510 C 252.328 197.244,251.656 197.266,229.297 197.266 C 206.938 197.266,206.266 197.287,205.873 198.021 C 205.303 199.087,205.325 236.377,205.897 239.141 C 206.705 243.039,208.547 244.710,212.537 245.159 C 214.793 245.414,216.098 246.685,217.586 250.077 C 217.803 250.572,218.327 251.504,218.751 252.148 C 219.176 252.793,219.645 253.584,219.795 253.906 C 219.944 254.229,221.704 257.284,223.705 260.697 C 225.706 264.109,227.344 266.972,227.344 267.059 C 227.344 267.210,235.944 282.002,236.731 283.203 C 236.942 283.525,237.234 284.053,237.381 284.375 C 237.527 284.697,238.987 287.246,240.625 290.039 C 242.263 292.832,243.726 295.381,243.876 295.703 C 244.026 296.025,244.487 296.816,244.901 297.461 C 245.314 298.105,246.037 299.392,246.507 300.320 C 246.977 301.248,247.795 302.522,248.325 303.152 L 249.288 304.297 274.266 304.297 C 301.254 304.297,300.563 304.351,299.302 302.332 C 298.927 301.731,296.353 297.136,294.058 292.969 C 293.644 292.217,292.907 290.898,292.421 290.039 C 291.936 289.180,290.860 287.246,290.032 285.742 C 289.204 284.238,288.125 282.305,287.635 281.445 C 287.146 280.586,286.480 279.355,286.157 278.711 C 285.833 278.066,284.765 276.133,283.783 274.414 C 282.802 272.695,281.736 270.762,281.416 270.117 C 281.095 269.473,280.435 268.242,279.949 267.383 C 279.011 265.725,277.170 262.378,274.897 258.203 C 274.137 256.807,272.795 254.346,271.915 252.734 C 268.810 247.050,267.084 243.307,267.427 243.005 C 267.618 242.837,268.916 242.295,270.313 241.800 C 274.909 240.171,283.060 235.793,286.133 233.302 C 286.348 233.128,287.791 231.966,289.340 230.719 C 297.434 224.206,302.746 215.138,304.131 205.469 C 304.937 199.845,304.915 127.058,304.107 122.124 C 303.060 115.740,300.130 109.828,295.649 105.059 C 294.602 103.944,289.668 100.000,289.320 100.000 C 289.197 100.000,288.203 99.473,287.109 98.828 C 286.016 98.184,284.936 97.656,284.710 97.656 C 284.483 97.656,283.744 97.406,283.067 97.101 C 279.028 95.279,280.483 95.309,199.570 95.364 C 128.798 95.412,123.420 95.462,120.508 96.099 " stroke="none" fill="#0685bc" fill-rule="evenodd"></path><path id="path3" d="" stroke="none" fill="#100c040" fill-rule="evenodd"></path><path id="path4" d="" stroke="none" fill="#100c040" fill-rule="evenodd"></path></g></svg>